<?xml version="1.0" encoding="UTF-8" standalone="no"?>
<svg
   version="1.1"
   id="svg2"
   xml:space="preserve"
   width="1196.3202"
   height="294.33331"
   viewBox="0 0 1196.3202 294.33332"
   sodipodi:docname="logo-blue.svg"
   inkscape:version="1.1.1 (eb90963e84, 2021-10-02)"
   xmlns:inkscape="http://www.inkscape.org/namespaces/inkscape"
   xmlns:sodipodi="http://sodipodi.sourceforge.net/DTD/sodipodi-0.dtd"
   xmlns="http://www.w3.org/2000/svg"
   xmlns:svg="http://www.w3.org/2000/svg"
   xmlns:rdf="http://www.w3.org/1999/02/22-rdf-syntax-ns#"
   xmlns:cc="http://creativecommons.org/ns#"
   xmlns:dc="http://purl.org/dc/elements/1.1/"><sodipodi:namedview
     id="namedview25"
     pagecolor="#ffffff"
     bordercolor="#666666"
     borderopacity="1.0"
     inkscape:pageshadow="2"
     inkscape:pageopacity="0.0"
     inkscape:pagecheckerboard="0"
     showgrid="false"
     inkscape:zoom="0.55921484"
     inkscape:cx="460.46704"
     inkscape:cy="285.22133"
     inkscape:window-width="1852"
     inkscape:window-height="1016"
     inkscape:window-x="68"
     inkscape:window-y="27"
     inkscape:window-maximized="1"
     inkscape:current-layer="svg2" /><metadata
     id="metadata8"><rdf:RDF><cc:Work
         rdf:about=""><dc:format>image/svg+xml</dc:format><dc:type
           rdf:resource="http://purl.org/dc/dcmitype/StillImage" /></cc:Work></rdf:RDF></metadata><defs
     id="defs6"><clipPath
       clipPathUnits="userSpaceOnUse"
       id="clipPath20"><path
         d="M 0,401.011 H 1054.755 V 0 H 0 Z"
         id="path18" /></clipPath><clipPath
       clipPathUnits="userSpaceOnUse"
       id="clipPath30"><path
         d="M 0,401.011 H 1054.755 V 0 H 0 Z"
         id="path28" /></clipPath></defs><g
     id="g32"
     transform="matrix(1.3333333,0,0,-1.3333333,39.666663,251.99999)"
     style="fill:#0012ee;fill-opacity:1"><path
       d="M 0,0 H 118 V -29.75 H -29.75 v 107 c 0,20 5,38.625 15,55.875 C -4.75,150.375 8.832,164 26,174 c 17.164,10 35.832,15 56,15 h 36 V 159.25 H 82 C 71.164,159.25 60.707,157.164 50.625,153 40.539,148.832 31.664,142.914 24,135.25 16.332,127.582 10.414,118.707 6.25,108.625 2.082,98.539 0,88.082 0,77.25 Z"
       style="fill:#0012ee;fill-opacity:1;fill-rule:nonzero;stroke:none"
       id="path34" /></g><g
     id="g36"
     transform="matrix(1.3333333,0,0,-1.3333333,368.33199,193.33333)"
     style="fill:#0012ee;fill-opacity:1"><path
       d="m 0,0 c 0,5.832 -1.125,11.457 -3.375,16.875 -2.25,5.414 -5.461,10.207 -9.625,14.375 -4.168,4.164 -8.961,7.375 -14.375,9.625 -5.418,2.25 -11.043,3.375 -16.875,3.375 -11.668,0 -22.086,-4.336 -31.25,-13 C -79.668,27.082 -82.836,22.289 -85,16.875 -87.168,11.457 -88.25,5.832 -88.25,0 c 0,-11.836 4.25,-22.25 12.75,-31.25 9,-8.5 19.414,-12.75 31.25,-12.75 H 0 Z m 29.5,73.75 v -147.5 h -75.25 c -13,0.332 -25.043,3.832 -36.125,10.5 -11.086,6.664 -19.875,15.582 -26.375,26.75 -6.5,11.332 -9.75,23.5 -9.75,36.5 0,13.332 3.289,25.664 9.875,37 6.582,11.332 15.539,20.332 26.875,27 11.332,6.5 23.664,9.75 37,9.75 8.164,0 16.039,-1.25 23.625,-3.75 C -13.043,67.5 -6.168,63.914 0,59.25 v 14.5 z"
       style="fill:#0012ee;fill-opacity:1;fill-rule:nonzero;stroke:none"
       id="path38" /></g><g
     id="g40"
     transform="matrix(1.3333333,0,0,-1.3333333,573.66145,134.33333)"
     style="fill:#0012ee;fill-opacity:1"><path
       d="m 0,0 h -37.25 c -11.668,0 -22.086,-4.336 -31.25,-13 -4.168,-4.168 -7.336,-8.961 -9.5,-14.375 -2.168,-5.418 -3.25,-11.043 -3.25,-16.875 V -118 H -111 v 75.5 c 0.332,13 3.832,25.039 10.5,36.125 6.664,11.082 15.582,19.875 26.75,26.375 11.332,6.332 23.5,9.5 36.5,9.5 H 0 Z"
       style="fill:#0012ee;fill-opacity:1;fill-rule:nonzero;stroke:none"
       id="path42" /></g><g
     id="g44"
     transform="matrix(1.3333333,0,0,-1.3333333,732.32545,193.33333)"
     style="fill:#0012ee;fill-opacity:1"><path
       d="M 0,0 C 0,13.664 -4.418,24.914 -13.25,33.75 -22.086,42.582 -32.668,47 -45,47 c -12.336,0 -22.918,-4.418 -31.75,-13.25 -8.668,-8.668 -13,-19.918 -13,-33.75 0,-13.836 4.332,-25.086 13,-33.75 4.164,-4.168 9,-7.375 14.5,-9.625 5.5,-2.25 11.25,-3.375 17.25,-3.375 6,0 11.75,1.125 17.25,3.375 5.5,2.25 10.332,5.457 14.5,9.625 C -4.418,-24.918 0,-13.668 0,0 M -7.875,65.75 C 3.375,59.082 12.332,50 19,38.5 25.5,26.832 28.75,14.082 28.75,0.25 V 0 C 28.75,-13.836 25.5,-26.5 19,-38 12.5,-49.5 3.582,-58.668 -7.75,-65.5 -19.086,-72.336 -31.5,-75.75 -45,-75.75 c -13.336,0 -25.668,3.332 -37,10 -11.336,6.664 -20.25,15.832 -26.75,27.5 -6.668,11.332 -10,24.082 -10,38.25 v 0.25 c 0,13.832 3.25,26.539 9.75,38.125 6.5,11.582 15.5,20.707 27,27.375 11.164,6.664 23.582,10 37.25,10 13.332,0 25.625,-3.336 36.875,-10"
       style="fill:#0012ee;fill-opacity:1;fill-rule:nonzero;stroke:none"
       id="path46" /></g><g
     id="g48"
     transform="matrix(1.3333333,0,0,-1.3333333,783.98958,94.999998)"
     style="fill:#0012ee;fill-opacity:1"><path
       d="m 0,0 h 29.75 v -73.5 c 0,-6 1.125,-11.668 3.375,-17 2.25,-5.336 5.457,-10.086 9.625,-14.25 4.164,-4.168 8.914,-7.375 14.25,-9.625 5.332,-2.25 11,-3.375 17,-3.375 h 43.5 V 0 h 29.75 V -147.5 H 74 c -13.5,0 -25.918,3.289 -37.25,9.875 C 25.414,-131.043 16.5,-122.086 10,-110.75 3.332,-99.586 0,-87.168 0,-73.5 Z"
       style="fill:#0012ee;fill-opacity:1;fill-rule:nonzero;stroke:none"
       id="path50" /></g><g
     id="g52"
     transform="matrix(1.3333333,0,0,-1.3333333,1152.4869,215.99999)"
     style="fill:#0012ee;fill-opacity:1"><path
       d="M 0,0 C 2.25,5.332 3.375,10.914 3.375,16.75 3.375,22.582 2.25,28.164 0,33.5 c -2.25,5.332 -5.461,10.082 -9.625,14.25 -4.168,4.164 -8.918,7.375 -14.25,9.625 -5.336,2.25 -10.918,3.375 -16.75,3.375 -5.836,0 -11.418,-1.125 -16.75,-3.375 -5.336,-2.25 -10.086,-5.461 -14.25,-9.625 C -75.793,43.582 -79,38.832 -81.25,33.5 -83.5,28.164 -84.625,22.582 -84.625,16.75 v -44 h 44 c 5.832,0 11.414,1.125 16.75,3.375 5.332,2.25 10.082,5.457 14.25,9.625 C -5.461,-10.086 -2.25,-5.336 0,0 M -3.75,80.5 C 7.5,74 16.457,65.082 23.125,53.75 c 6.5,-11.168 9.75,-23.5 9.75,-37 0,-13.336 -3.25,-25.625 -9.75,-36.875 -6.5,-11.25 -15.418,-20.125 -26.75,-26.625 -11.168,-6.668 -23.5,-10 -37,-10 h -73.5 V 162 h 29.5 V 75.5 c 6.164,4.664 13.039,8.289 20.625,10.875 7.582,2.582 15.375,3.875 23.375,3.875 C -27.293,90.25 -15,87 -3.75,80.5"
       style="fill:#0012ee;fill-opacity:1;fill-rule:nonzero;stroke:none"
       id="path54" /></g></svg>
