<?xml version="1.0" encoding="utf-8"?>
<!-- Svg Vector Icons : http://www.onlinewebfonts.com/icon -->
<!DOCTYPE svg PUBLIC "-//W3C//DTD SVG 1.1//EN" "http://www.w3.org/Graphics/SVG/1.1/DTD/svg11.dtd">
<svg version="1.1" xmlns="http://www.w3.org/2000/svg" xmlns:xlink="http://www.w3.org/1999/xlink" x="0px" y="0px" viewBox="0 0 1000 1000" enable-background="new 0 0 1000 1000" xml:space="preserve">
<metadata> Svg Vector Icons : http://www.onlinewebfonts.com/icon </metadata>
<g><g transform="translate(0.000000,512.000000) scale(0.100000,-0.100000)"><path d="M2870.2,3971.8c-1968-986.9-2096.4-1054-2127.1-1117.2c-32.6-63.2-34.5-224.2-34.5-2535.3c0-2073.4,3.8-2477.8,26.8-2531.4c24.9-57.5,239.5-193.5,2113.7-1316.5c1715.1-1031,2096.4-1251.4,2152-1251.4c51.7,0,527,252.9,2117.5,1128.7c1128.7,619,2077.3,1151.7,2107.9,1182.4l57.5,53.7l5.7,2602.3c3.8,2447.1,1.9,2604.3-28.8,2667.5c-32.6,63.2-161,130.3-2129,1117.2C5982.3,4548.6,5022.3,5020,5001.2,5020C4980.1,5020,4020,4548.6,2870.2,3971.8z M6815.9,3686.2c979.2-490.6,1786-898.7,1795.6-908.3c9.6-9.6-149.5-99.6-364.1-207l-381.4-189.7l-1766.8,929.4c-1130.6,596-1761.1,939-1749.6,950.5c38.3,38.3,605.6,316.2,645.8,318.1C5020.4,4579.3,5838.6,4176.8,6815.9,3686.2z M5610.6,3120.9c944.7-498.2,1740-917.9,1764.9-933.2c46-28.7,38.3-32.6-344.9-224.2l-390.9-197.4l-1818.6,910.3c-998.4,500.1-1810.9,914.1-1803.3,921.7c21.1,23,822.1,421.6,848.9,423.5C3882.1,4023.5,4665.8,3617.3,5610.6,3120.9z M4343.9,2469.4c988.8-496.3,1805.2-908.3,1814.8-917.9c9.6-9.6-237.6-143.7-571.1-310.4l-586.4-293.2l-1810.9,906.4c-996.5,496.3-1810.9,910.2-1810.9,917.9c0,11.5,1105.7,578.7,1163.2,597.9C2546.4,3372,3357,2965.7,4343.9,2469.4z M4805.7-1807.8c1.9-1726.6-1.9-2408.8-17.2-2408.8c-11.5,0-843.2,494.4-1849.2,1096.1l-1828.2,1098V215.8v2236.3l1845.4-923.7L4800,602.9L4805.7-1807.8z M8887.5,102.8l-5.7-2328.3L7053.5-3231.6c-1004.1-551.9-1833.9-1004.2-1843.5-1004.2c-9.6,0-15.3,1006.1-13.4,2420.3l5.7,2418.4l594.1,300.9c327.7,164.8,603.6,300.9,617.1,302.8c17.2,0,24.9-166.7,28.7-701.4l5.7-701.4l55.6-46c44.1-38.3,72.8-47.9,153.3-44.1c53.6,1.9,143.7-11.5,201.2-28.8c84.3-24.9,118.8-24.9,189.7-7.6c111.1,28.7,235.7,147.6,268.3,260.6c13.4,44.1,28.7,80.5,32.6,80.5s55.6-11.5,113.1-26.8c210.8-55.6,398.6,44.1,463.7,245.3c17.2,53.7,47.9,115,67.1,136.1c70.9,78.6,74.7,132.2,74.7,906.4v760.8l389,195.5c212.7,107.3,398.6,195.5,412,195.5C8887.5,2433,8891.3,1961.6,8887.5,102.8z M7664.9,1231.5V641.2l-47.9-93.9c-26.8-51.7-47.9-111.2-47.9-130.3c0-42.1,1.9-42.1-128.4-3.8c-86.2,24.9-118.8,26.8-199.3,7.7c-126.5-30.7-233.8-132.2-268.3-249.1c-30.7-107.3-23-99.6-82.4-84.3l-49.8,11.5v665v663l389,195.5c212.7,107.3,398.6,195.5,412,195.5C7659.1,1819.8,7664.9,1689.5,7664.9,1231.5z"/><path d="M3270.8-738.5c-32.6-19.2-141.8-164.8-281.7-375.6c-247.2-371.8-266.4-425.4-191.6-519.3c86.2-109.2,249.1-109.2,321.9,0c30.7,47.9,32.6,28.8,42.2-473.3l9.6-523.1l63.2-55.6c84.3-74.7,172.5-74.7,256.8,0l63.2,55.6l9.6,559.6l9.6,557.6l120.7-162.9c151.4-203.1,197.4-241.4,295.1-241.4c124.6,0,218.5,132.2,174.4,249.1c-19.2,53.7-613.2,852.8-672.6,906.4C3437.5-713.6,3335.9-704,3270.8-738.5z"/></g></g>
</svg>